<?xml version="1.0" standalone="no"?>
<!DOCTYPE svg PUBLIC "-//W3C//DTD SVG 20010904//EN"
 "http://www.w3.org/TR/2001/REC-SVG-20010904/DTD/svg10.dtd">
<svg version="1.0" xmlns="http://www.w3.org/2000/svg"
 width="508.000000pt" height="685.000000pt" viewBox="0 0 508.000000 685.000000"
 preserveAspectRatio="xMidYMid meet">

<g transform="translate(0.000000,685.000000) scale(0.100000,-0.100000)"
fill="#000000" stroke="none">
<path d="M0 4356 c0 -2091 2 -2495 14 -2499 7 -3 34 -3 60 -1 30 3 46 1 46 -7
0 -8 -19 -10 -60 -7 l-60 4 0 -137 0 -137 48 -1 c102 -2 106 -3 71 -21 -13 -7
-25 -8 -32 -2 -7 5 -29 7 -49 5 -38 -5 -38 -5 -38 -53 0 -29 5 -51 13 -54 10
-5 10 -7 0 -12 -9 -4 -13 -39 -13 -124 l0 -117 42 -12 c52 -15 77 -16 100 -6
11 4 18 3 18 -4 0 -6 -5 -11 -12 -11 -6 0 -2 -9 10 -20 12 -12 22 -25 22 -30
0 -5 16 0 35 11 19 12 40 19 47 16 8 -3 2 -9 -13 -15 -15 -6 -46 -29 -70 -51
-44 -40 -63 -49 -73 -32 -3 4 6 13 20 20 21 9 25 17 22 44 -2 17 -7 35 -13 39
-12 9 -97 10 -119 2 -29 -11 -17 -24 23 -24 49 0 64 -18 22 -26 -17 -4 -31
-13 -31 -20 0 -8 -7 -14 -15 -14 -11 0 -15 -12 -15 -45 0 -42 2 -45 28 -46
l27 -1 -27 -11 c-16 -6 -28 -17 -28 -25 0 -8 6 -12 15 -8 8 3 15 1 15 -4 0 -6
-7 -10 -15 -10 -12 0 -15 -14 -15 -67 0 -52 3 -64 12 -55 17 17 29 15 22 -3
-4 -8 -12 -15 -20 -15 -11 0 -14 -18 -14 -80 0 -44 2 -80 4 -80 3 0 16 4 30
10 37 14 32 -2 -5 -19 -23 -10 -28 -16 -18 -22 12 -7 12 -10 1 -18 -8 -5 -12
-23 -10 -47 l3 -38 65 65 c36 35 80 75 98 88 38 27 35 39 -8 33 -23 -3 -30 0
-30 12 0 14 -7 16 -38 10 -20 -4 -45 -11 -54 -16 -26 -13 -22 5 6 32 16 14 31
20 42 16 9 -4 50 -4 91 0 73 7 75 7 109 52 25 33 34 55 34 82 0 30 7 45 36 74
28 28 35 41 29 59 -3 12 -7 27 -7 34 -1 8 -8 7 -24 -4 -12 -8 -38 -13 -56 -11
l-33 3 33 30 c23 21 32 38 32 60 0 31 15 55 34 55 6 0 5 -5 -2 -12 -7 -7 -12
-20 -12 -31 0 -15 6 -18 32 -15 31 3 33 1 31 -27 -2 -16 -3 -44 -3 -61 0 -17
-15 -53 -32 -80 -17 -27 -32 -64 -34 -81 -4 -45 -50 -121 -84 -138 -19 -10
-30 -24 -32 -42 -2 -21 -15 -36 -50 -58 -26 -16 -51 -40 -57 -52 -5 -11 -36
-38 -68 -60 l-58 -38 37 -5 c20 -3 48 -15 62 -27 24 -21 26 -28 22 -85 -2 -41
-12 -78 -28 -108 -21 -40 -27 -45 -56 -42 l-32 2 0 -95 0 -95 225 0 224 0 -22
23 c-14 14 -23 18 -25 9 -5 -17 -27 -15 -46 4 -15 14 -21 41 -17 73 2 7 -2 10
-8 7 -24 -15 -42 69 -19 92 9 9 8 12 -6 12 -29 0 -18 101 16 138 13 15 30 47
37 71 16 54 60 101 95 101 29 0 35 16 8 23 -12 3 -10 5 7 6 13 0 29 9 36 18
13 17 55 29 55 15 0 -4 -5 -13 -12 -20 -9 -9 -9 -16 4 -28 15 -15 16 -13 16
30 0 25 -3 44 -6 42 -10 -6 -37 16 -45 37 -4 12 -1 17 9 17 10 0 14 6 11 15
-4 8 -2 17 3 20 6 4 10 15 10 26 0 11 4 17 10 14 6 -4 10 8 10 27 0 19 6 43
14 53 7 10 11 27 8 37 -3 13 0 17 11 13 10 -4 16 2 20 22 3 15 1 31 -4 34 -5
3 0 14 11 24 11 10 20 26 19 34 -3 23 11 51 25 51 7 0 18 16 26 35 11 29 16
33 28 22 13 -10 14 -9 4 10 -9 16 -8 32 2 67 8 25 11 46 8 46 -4 1 8 7 27 16
28 12 48 13 105 5 64 -9 73 -8 92 9 11 11 27 20 36 20 9 0 19 6 21 13 4 9 8 8
16 -3 10 -14 16 -2 9 17 -6 15 -149 2 -173 -17 -5 -4 -41 -13 -80 -19 -63 -11
-71 -11 -82 5 -9 12 -10 21 -2 30 6 7 8 17 5 22 -3 6 1 15 9 22 19 16 45 67
37 74 -3 3 -14 6 -24 6 -10 0 -18 7 -18 15 0 8 5 15 10 15 6 0 10 6 10 13 0
17 36 50 57 53 9 2 19 8 23 15 5 8 18 9 36 4 16 -4 23 -10 17 -12 -15 -5 -18
-23 -4 -23 15 0 22 32 10 46 -9 11 -8 14 5 14 8 0 23 11 32 26 9 14 23 23 30
20 7 -3 15 1 17 8 3 8 18 17 33 20 16 4 39 19 53 32 14 15 27 21 31 14 3 -5
23 8 46 31 21 22 57 50 78 61 22 11 46 27 54 34 15 16 22 17 38 6 15 -9 27
-129 14 -137 -7 -4 -7 -13 0 -24 12 -24 2 -33 -22 -20 -10 6 -27 9 -36 7 -12
-3 -8 -9 18 -24 l35 -19 -55 -5 c-42 -4 -50 -7 -33 -13 29 -11 38 -38 17 -54
-10 -7 -14 -13 -8 -14 5 0 0 -4 -11 -8 -16 -7 -12 -10 22 -15 46 -8 68 -27 59
-51 -8 -22 7 -18 22 5 7 11 17 20 24 20 6 0 9 -3 5 -6 -7 -7 48 -50 76 -60 35
-13 15 -24 -43 -24 -48 0 -58 -3 -54 -15 4 -10 15 -12 36 -8 32 6 78 -13 78
-33 0 -7 9 -15 20 -19 10 -3 31 -20 45 -37 20 -24 25 -37 19 -61 -6 -28 11
-77 27 -77 4 0 11 14 14 32 l7 32 20 -24 c11 -14 31 -45 44 -70 28 -52 47 -83
55 -90 12 -11 79 -156 79 -171 0 -9 7 -22 16 -30 10 -8 13 -21 9 -36 -4 -16 1
-30 15 -45 29 -32 59 -98 62 -138 1 -19 9 -48 18 -65 22 -42 69 -115 74 -115
3 0 11 14 20 30 10 21 11 30 3 30 -19 1 44 50 90 71 49 23 48 22 58 74 l7 40
-24 -20 c-12 -12 -32 -27 -42 -35 -20 -15 -20 -15 0 18 10 18 31 45 47 59 25
25 29 26 43 11 13 -12 14 -20 5 -36 -6 -11 -11 -28 -11 -36 0 -26 19 -18 26
12 9 34 53 88 70 84 7 -1 18 7 24 18 8 15 17 19 31 15 13 -4 19 -2 19 9 0 9
-5 16 -11 16 -5 0 -7 5 -4 10 4 6 10 8 14 6 4 -3 12 8 19 23 9 20 24 32 53 40
23 7 44 10 47 6 4 -3 -12 -22 -36 -41 -23 -20 -42 -44 -42 -54 0 -10 -20 -34
-45 -55 -25 -20 -43 -40 -41 -43 2 -4 0 -17 -4 -28 -8 -21 -91 -74 -116 -74
-7 0 -16 -4 -19 -10 -3 -6 1 -7 10 -4 11 5 14 2 9 -10 -6 -15 -3 -15 22 -4 16
7 39 23 52 35 13 13 27 23 33 23 5 0 14 11 21 25 6 13 15 22 21 18 5 -3 6 3 2
17 -4 14 -3 20 3 16 5 -3 12 1 16 9 3 9 18 15 40 15 21 0 36 6 40 15 3 8 13
15 21 15 9 0 23 6 31 14 7 8 18 16 24 18 6 2 12 11 14 21 3 21 35 46 59 47 20
0 22 11 5 28 -9 9 -9 12 0 12 7 0 24 12 38 28 l25 27 -5 -40 c-3 -22 -8 -59
-11 -83 -5 -44 9 -59 18 -19 3 12 10 38 15 57 5 20 5 46 1 58 -6 16 -5 21 2
16 16 -9 30 18 17 33 -12 15 11 43 36 43 9 0 13 6 10 14 -4 10 0 13 14 9 13
-3 26 5 43 27 13 18 41 49 63 70 l39 38 -49 -5 c-108 -9 -109 -10 -138 -63
-26 -48 -59 -80 -82 -80 -6 0 -14 23 -17 51 -4 28 -12 58 -19 66 -11 13 -9 18
12 31 44 28 111 104 102 116 -5 6 -8 28 -7 49 1 29 -1 37 -12 32 -8 -3 -20 -5
-26 -5 -7 0 -39 -25 -71 -55 -32 -31 -61 -54 -63 -52 -2 3 2 16 8 30 10 21 9
30 -2 43 -12 14 -12 18 -1 22 8 2 28 17 45 32 37 32 73 45 82 30 11 -17 33
-11 61 17 l28 27 -31 7 c-56 11 -66 29 -37 65 15 19 15 19 11 -3 -6 -25 17
-34 69 -26 37 6 47 23 13 23 -12 0 -18 4 -13 11 3 6 1 15 -7 19 -10 7 -7 15
14 36 19 18 24 30 16 34 -15 10 29 40 58 40 14 0 23 6 23 15 0 8 4 15 10 15 5
0 7 7 4 15 -7 17 22 98 47 135 9 14 42 46 73 70 32 26 56 53 56 64 0 14 5 17
21 13 12 -3 19 -1 16 6 -2 6 10 23 25 38 l28 27 -25 4 c-17 4 -25 1 -25 -8 0
-8 -8 -14 -17 -14 -10 0 -34 -19 -54 -42 -20 -24 -40 -40 -43 -37 -8 8 47 124
70 151 24 25 64 24 64 -2 0 -11 5 -20 10 -20 6 0 10 6 10 14 0 8 3 21 6 30 4
11 1 16 -10 16 -21 0 -21 39 0 47 8 3 13 12 10 19 -3 8 0 14 7 14 9 0 12 11 9
34 -3 28 2 39 32 70 41 40 72 48 63 16 -3 -13 0 -20 8 -20 8 0 15 -7 17 -16 5
-26 103 -74 152 -74 24 0 62 -7 85 -15 22 -8 41 -12 41 -8 0 3 10 -2 23 -10
21 -14 24 -13 34 2 10 15 4 22 -42 46 -74 38 -173 136 -137 135 4 0 25 -11 47
-25 22 -13 78 -45 125 -71 104 -59 144 -104 85 -96 -14 2 -25 -1 -25 -7 0 -6
9 -11 20 -11 12 0 20 -7 21 -17 0 -11 3 -13 6 -5 10 25 39 31 83 18 43 -13 67
-36 36 -36 -8 0 -18 -4 -21 -10 -4 -6 5 -8 22 -4 21 4 33 0 47 -15 19 -21 19
-21 -2 -21 -37 0 -52 -12 -62 -51 -6 -21 -15 -39 -20 -39 -25 0 -7 -15 20 -17
28 -2 42 11 19 19 -16 5 0 35 24 43 54 18 83 11 167 -38 47 -27 91 -52 98 -56
8 -3 12 -10 10 -14 -2 -5 5 -13 15 -18 9 -6 17 -20 17 -32 0 -18 2 -19 10 -7
5 8 10 27 10 41 0 15 7 30 16 33 31 12 135 6 164 -9 33 -17 39 -35 13 -35 -10
0 -31 -9 -48 -20 -38 -25 -70 -25 -95 0 -26 26 -26 16 0 -17 11 -14 20 -34 20
-44 0 -20 35 -44 50 -34 11 7 52 -35 47 -50 -6 -17 -58 -18 -96 0 -34 15 -50
34 -67 78 -9 25 -24 21 -24 -8 0 -19 4 -23 17 -18 12 5 15 2 10 -10 -3 -9 -2
-19 4 -23 6 -3 8 -13 4 -22 -4 -10 5 -25 26 -43 43 -37 30 -53 -24 -29 -46 22
-72 25 -62 10 3 -5 15 -10 26 -10 13 0 19 -7 20 -22 0 -22 1 -22 9 -3 8 18 9
17 9 -8 1 -16 -3 -26 -9 -22 -5 3 -10 3 -10 -2 0 -12 47 -31 126 -51 61 -16
69 -21 71 -42 0 -14 1 -30 2 -37 1 -7 11 -17 22 -24 15 -8 19 -8 15 0 -12 19
6 12 25 -10 12 -13 24 -19 37 -15 25 8 52 -2 52 -20 0 -21 9 -17 51 21 43 38
85 46 96 18 4 -10 13 -24 21 -32 11 -12 14 -10 19 8 3 11 9 21 14 21 5 0 5 7
2 17 -4 11 -3 14 5 9 7 -4 12 -16 12 -26 0 -11 9 -24 21 -30 11 -7 18 -17 16
-25 -3 -7 -1 -17 5 -23 6 -6 12 -21 13 -34 4 -38 5 -39 17 -32 7 5 9 2 5 -8
-3 -9 0 -24 7 -34 11 -15 18 -15 46 -5 18 6 48 22 66 36 33 25 38 47 20 88
-26 56 46 163 104 155 l30 -5 0 2679 0 2678 -260 0 c-153 0 -260 -4 -260 -9 0
-5 6 -11 13 -14 6 -2 4 -3 -7 -1 -19 3 -56 -15 -56 -28 0 -5 11 -8 25 -8 14 0
25 -5 25 -11 0 -6 -7 -9 -15 -5 -24 9 -46 -4 -40 -24 3 -11 -1 -20 -10 -24 -9
-3 -15 -14 -13 -23 2 -13 -7 -20 -39 -27 -24 -5 -43 -13 -43 -17 0 -5 -17 -9
-38 -9 -21 0 -42 -4 -47 -9 -13 -12 -235 -26 -235 -14 0 4 -18 8 -40 8 -22 0
-40 -4 -40 -11 0 -6 -39 -15 -92 -21 -85 -10 -96 -9 -125 8 -32 20 -73 18
-102 -5 -10 -8 -17 -6 -26 8 -9 12 -20 16 -34 11 -12 -3 -19 -11 -16 -16 4 -5
-14 -9 -38 -9 -31 0 -47 5 -51 15 -6 17 -76 21 -76 4 0 -6 -28 -9 -80 -6 -45
2 -80 0 -80 -5 0 -13 -153 2 -162 16 -6 8 -8 7 -8 -1 0 -7 -12 -13 -27 -13
-19 0 -24 3 -15 9 10 6 10 10 -2 20 -20 16 -39 4 -33 -21 4 -15 1 -18 -13 -13
-10 3 -22 1 -25 -6 -6 -8 -10 -8 -15 1 -6 9 -34 12 -94 11 -55 -1 -86 2 -86 8
0 6 -9 11 -20 11 -11 0 -20 -4 -20 -10 0 -14 -37 -12 -43 3 -4 10 -7 10 -18 0
-7 -8 -39 -13 -76 -13 -37 0 -63 -4 -63 -10 0 -7 -6 -7 -20 0 -12 6 -134 11
-323 13 -198 1 -303 5 -301 12 3 6 -20 9 -61 7 -52 -3 -65 -1 -65 11 0 8 -7
18 -16 21 -25 10 -94 7 -94 -4 0 -5 -18 -10 -40 -10 -22 0 -40 -4 -40 -10 0
-5 -18 -10 -39 -10 -22 0 -42 -6 -45 -12 -3 -9 -8 -8 -16 5 -6 9 -18 17 -25
17 -8 0 -14 6 -12 13 1 8 -16 13 -55 15 -50 3 -58 0 -69 -19 -11 -22 -12 -22
-25 -4 -8 10 -14 29 -14 41 0 13 -5 26 -10 29 -5 3 -10 -1 -10 -9 0 -12 -11
-16 -50 -16 -30 0 -50 -4 -50 -11 0 -8 -5 -7 -16 2 -14 11 -18 10 -30 -6 -12
-17 -14 -17 -14 -2 0 11 -8 17 -24 17 -15 0 -26 7 -29 20 -7 27 -25 25 -30 -2
-3 -19 -7 -15 -26 25 -18 38 -27 48 -42 44 -18 -5 -69 42 -69 64 0 5 -182 9
-450 9 l-450 0 0 -2494z m4660 2444 c0 -5 -4 -10 -10 -10 -5 0 -10 5 -10 10 0
6 5 10 10 10 6 0 10 -4 10 -10z m-260 -170 c0 -11 -14 -11 -50 0 -22 7 -21 8
13 9 20 1 37 -3 37 -9z m-203 -361 c6 -6 71 -15 145 -21 73 -5 135 -13 136
-18 2 -6 18 -11 35 -11 24 -1 26 -3 10 -6 -18 -3 -23 -11 -23 -34 0 -16 5 -29
10 -29 6 0 10 -4 10 -10 0 -5 -13 -10 -30 -10 -28 0 -30 -2 -30 -40 0 -22 5
-40 10 -40 6 0 10 5 10 10 0 6 18 10 40 10 33 0 40 -3 40 -20 0 -24 -40 -36
-68 -21 -24 13 -48 6 -56 -15 -10 -27 -36 -16 -36 16 0 28 -2 30 -40 30 -38 0
-40 -2 -40 -30 0 -28 -2 -30 -40 -30 -22 0 -40 -4 -40 -10 0 -5 18 -10 40 -10
30 0 40 -4 40 -16 0 -14 -9 -16 -52 -12 -32 4 -60 1 -73 -7 -22 -13 -115 -9
-115 6 0 5 18 9 40 9 22 0 40 4 40 9 0 5 -71 8 -157 7 l-158 -1 -3 28 c-3 24
-7 27 -43 27 l-39 0 0 60 0 60 -40 0 -40 0 0 -55 0 -55 -48 0 c-57 0 -78 14
-87 56 -5 24 -2 33 11 38 11 4 15 14 11 33 -3 15 -1 37 4 50 8 22 14 23 99 23
57 0 90 -4 90 -11 0 -13 180 -2 195 12 13 13 43 11 47 -2 3 -8 26 -9 77 -4 60
6 74 11 78 26 6 21 23 25 40 8z m-650 -46 c3 -8 -11 -10 -51 -6 l-55 6 -3 -44
c-3 -34 -5 -39 -12 -24 -4 11 -12 28 -18 39 -14 26 -1 34 57 39 68 5 78 4 82
-10z m-222 -14 c-31 -9 -69 -3 -61 10 3 3 24 5 48 2 42 -4 42 -4 13 -12z
m1262 5 c-3 -3 -12 -4 -19 -1 -8 3 -5 6 6 6 11 1 17 -2 13 -5z m-1277 -48 c0
-2 -7 -6 -15 -10 -8 -3 -15 -1 -15 4 0 6 7 10 15 10 8 0 15 -2 15 -4z m1275
-16 c3 -5 -1 -10 -9 -10 -9 0 -16 5 -16 10 0 6 4 10 9 10 6 0 13 -4 16 -10z
m-1225 -26 c0 -14 -3 -14 -15 -4 -8 7 -15 14 -15 16 0 2 7 4 15 4 8 0 15 -7
15 -16z m80 -20 c0 -9 -5 -14 -12 -12 -18 6 -21 28 -4 28 9 0 16 -7 16 -16z
m1103 -1 c-13 -2 -33 -2 -45 0 -13 2 -3 4 22 4 25 0 35 -2 23 -4z m-1023 -23
c0 -22 -8 -25 -30 -10 -13 9 -13 11 0 20 22 15 30 12 30 -10z m463 -127 c-13
-2 -33 -2 -45 0 -13 2 -3 4 22 4 25 0 35 -2 23 -4z m-2146 -1719 c-3 -3 -12
-4 -19 -1 -8 3 -5 6 6 6 11 1 17 -2 13 -5z m113 -37 c46 -39 53 -53 40 -77
-14 -26 -84 -59 -124 -60 l-29 0 25 20 c34 26 58 79 51 113 -6 33 3 34 37 4z
m-110 -17 c0 -5 -4 -10 -10 -10 -5 0 -10 5 -10 10 0 6 5 10 10 10 6 0 10 -4
10 -10z m1038 -85 c1 -20 4 -40 7 -45 4 -6 -2 -10 -13 -10 -10 0 -24 11 -30
25 -15 32 -15 31 4 49 23 24 31 20 32 -19z m278 -22 c-3 -14 -13 -34 -22 -44
-10 -11 -14 -22 -11 -26 17 -17 -19 -33 -72 -32 -47 1 -51 2 -28 9 16 5 35 14
43 21 8 6 18 9 21 5 4 -4 1 -11 -7 -16 -8 -6 -10 -10 -4 -10 6 0 17 6 23 14 9
11 9 15 -1 18 -10 4 -10 8 -2 19 6 8 14 31 18 52 6 33 9 36 27 27 14 -8 18
-18 15 -37z m-116 23 c-6 -8 -18 -12 -26 -9 -23 9 -16 23 12 23 22 0 24 -2 14
-14z m-610 -16 c0 -11 -4 -20 -10 -20 -5 0 -10 9 -10 20 0 11 5 20 10 20 6 0
10 -9 10 -20z m482 -71 c16 -12 27 -23 25 -26 -8 -7 -67 26 -67 37 0 15 9 12
42 -11z m-17 -39 c3 -5 2 -10 -4 -10 -5 0 -13 5 -16 10 -3 6 -2 10 4 10 5 0
13 -4 16 -10z m82 4 c-3 -3 -12 -4 -19 -1 -8 3 -5 6 6 6 11 1 17 -2 13 -5z
m-548 -56 c8 -37 9 -54 1 -56 -7 -3 -7 -9 2 -20 10 -12 10 -16 0 -19 -6 -3
-10 -9 -7 -13 5 -7 -43 -40 -58 -40 -7 0 -2 115 6 127 4 6 1 14 -5 16 -8 4 -4
8 10 13 18 5 20 9 10 15 -11 7 -10 11 2 19 24 15 26 13 39 -42z m-32 -190 c-3
-8 -6 -5 -6 6 -1 11 2 17 5 13 3 -3 4 -12 1 -19z m-2 -88 c18 -7 25 -15 21
-26 -3 -8 1 -17 9 -20 9 -4 15 -19 15 -39 0 -21 6 -35 16 -39 12 -5 15 -19 12
-73 -2 -46 -7 -68 -16 -67 -6 1 -23 2 -35 3 -27 1 -56 49 -38 61 11 6 -12 30
-47 49 -32 17 -33 57 -3 91 14 17 32 30 41 31 8 0 4 5 -10 10 -20 8 -22 12
-10 19 18 12 14 12 45 0z m-197 -938 c54 -3 62 -5 62 -16 0 -22 -16 -31 -57
-34 -32 -2 -48 3 -63 18 -11 11 -20 24 -20 29 0 11 33 20 40 10 3 -3 20 -7 38
-7z m112 1 c0 -5 -5 -15 -10 -23 -8 -12 -10 -11 -10 8 0 12 5 22 10 22 6 0 10
-3 10 -7z m60 -18 c0 -30 -1 -30 -28 -6 -23 19 -20 31 10 31 13 0 18 -7 18
-25z m105 15 c37 -14 26 -35 -19 -35 -20 0 -40 -6 -45 -13 -7 -11 -10 -10 -15
3 -14 38 -7 55 23 55 16 0 42 -5 56 -10z m710 -69 c-10 -32 -22 -25 -17 10 3
20 8 27 14 21 6 -6 7 -19 3 -31z m-2355 -570 c0 -18 -26 -48 -34 -40 -2 2 -2
16 1 32 6 30 33 37 33 8z m80 -6 c0 -21 -17 -45 -32 -45 -4 0 -5 6 -2 14 4 11
0 13 -18 9 l-23 -6 23 25 c28 30 52 32 52 3z m-241 -51 c-35 -26 -144 -94
-150 -94 -2 0 -5 11 -5 24 -2 26 32 47 126 79 64 22 69 20 29 -9z m229 -14
c-7 -10 -14 -17 -17 -15 -4 4 18 35 25 35 2 0 -1 -9 -8 -20z m-88 5 c0 -18
-117 -158 -143 -171 -42 -21 -87 -63 -98 -91 -4 -12 -28 -34 -51 -49 -24 -14
-53 -39 -66 -55 -23 -28 -42 -38 -42 -21 0 5 19 30 43 55 23 26 53 63 67 82
14 20 37 38 53 42 15 3 27 9 27 13 0 5 -9 6 -20 3 -11 -3 -20 -1 -20 5 0 12
53 52 69 52 6 0 16 9 23 20 7 11 18 20 25 20 6 0 13 6 16 13 2 6 7 10 10 7 4
-3 -5 -18 -18 -33 -14 -14 -25 -32 -25 -39 0 -7 11 -1 23 13 13 14 30 28 39
32 11 4 18 20 20 44 2 28 9 41 28 50 27 14 40 16 40 8z m-137 -26 c-18 -11
-38 -19 -45 -16 -7 3 3 12 22 20 49 23 61 20 23 -4z m167 -32 c0 -16 -44 -60
-52 -51 -9 9 25 64 40 64 6 0 12 -6 12 -13z m-410 -27 c0 -20 -84 -50 -137
-50 -29 0 -53 5 -53 10 0 6 19 10 43 11 32 0 111 21 145 38 1 0 2 -4 2 -9z
m25 -47 c-11 -7 -26 -13 -35 -13 -9 0 -21 -5 -26 -10 -6 -6 -35 -13 -65 -15
l-54 -5 45 13 c25 8 65 23 90 34 48 21 76 19 45 -4z m3965 -33 c0 -5 -7 -10
-17 -10 -15 0 -15 -2 1 -19 18 -20 43 -18 59 3 8 12 40 -22 32 -34 -7 -11 -81
-21 -99 -14 -16 6 -31 57 -21 74 8 13 45 13 45 0z m-3690 -8 c0 -5 -13 -28
-29 -53 -16 -24 -40 -62 -54 -85 -14 -22 -42 -61 -64 -86 -21 -25 -53 -64 -72
-87 -28 -35 -76 -71 -95 -71 -7 0 24 59 35 65 5 4 9 18 9 32 0 40 69 153 93
153 5 0 6 -12 3 -26 -11 -43 10 -19 55 62 30 56 50 80 73 90 37 16 46 17 46 6z
m3579 -28 c9 -8 -13 -24 -35 -24 -17 0 -24 5 -24 20 0 17 4 19 28 14 15 -4 29
-8 31 -10z m231 -54 c0 -5 -11 -10 -24 -10 -13 0 -37 -7 -52 -15 -34 -18 -58
-20 -48 -4 17 28 124 53 124 29z m-169 -83 c-18 -18 -25 1 -11 30 l14 28 4
-24 c2 -13 -1 -28 -7 -34z m-79 -1 c16 -24 8 -46 -17 -46 -27 0 -50 32 -41 56
6 17 45 10 58 -10z m514 9 c13 -10 15 -14 5 -15 -8 0 -36 -14 -63 -31 -47 -30
-49 -31 -68 -14 -28 25 -25 39 13 58 41 20 88 21 113 2z m-4488 -15 c28 -26
37 -65 23 -96 -14 -32 -14 -31 7 -36 13 -4 26 5 42 28 34 50 57 45 28 -6 -23
-40 -50 -60 -56 -41 -2 5 -19 7 -38 4 l-35 -6 21 36 c23 39 21 61 -10 97 -14
17 -26 21 -45 16 -31 -8 -33 1 -2 14 33 13 41 12 65 -10z m-98 -24 c0 -2 -12
-11 -27 -20 l-28 -17 24 20 c23 21 31 25 31 17z m20 -49 c0 -7 -8 -20 -17 -29
-10 -9 -29 -29 -41 -44 -23 -27 -23 -28 -5 -41 10 -8 17 -22 15 -32 -2 -10 5
-22 15 -26 15 -6 14 -9 -10 -16 -19 -5 -40 -3 -60 6 -18 7 -48 18 -67 23 l-35
9 30 7 c59 14 79 29 87 71 5 25 19 49 36 62 30 25 52 30 52 10z m487 -189 c-3
-8 -6 -5 -6 6 -1 11 2 17 5 13 3 -3 4 -12 1 -19z m-147 -177 c0 -11 -12 -33
-26 -50 -20 -24 -29 -29 -43 -21 -12 6 -22 5 -29 -2 -5 -5 -16 -8 -23 -6 -7 2
8 14 33 27 26 12 54 33 62 46 20 30 26 31 26 6z m1882 -93 c-17 -17 -15 -26 5
-30 13 -2 8 -9 -20 -26 -25 -14 -47 -20 -63 -16 l-24 6 25 30 c14 16 25 34 25
39 0 5 14 9 32 9 25 0 29 -3 20 -12z m83 -28 c-3 -5 -13 -10 -21 -10 -8 0 -12
5 -9 10 3 6 13 10 21 10 8 0 12 -4 9 -10z m-45 -99 c0 -11 -4 -23 -10 -26 -6
-4 -10 5 -10 19 0 14 5 26 10 26 6 0 10 -9 10 -19z m-2327 -68 c-43 -35 -71
-29 -37 8 8 9 26 16 40 15 l25 -1 -28 -22z m77 -83 c0 -5 -4 -10 -10 -10 -5 0
-10 5 -10 10 0 6 5 10 10 10 6 0 10 -4 10 -10z"/>
<path d="M4200 6233 c0 -10 189 -28 198 -18 11 11 -7 15 -101 21 -63 5 -97 3
-97 -3z"/>
<path d="M3600 6172 c0 -23 4 -42 9 -42 6 0 7 17 4 38 -8 51 -13 53 -13 4z"/>
<path d="M4320 6170 c0 -5 18 -10 40 -10 22 0 40 5 40 10 0 6 -18 10 -40 10
-22 0 -40 -4 -40 -10z"/>
<path d="M508 1573 c7 -3 16 -2 19 1 4 3 -2 6 -13 5 -11 0 -14 -3 -6 -6z"/>
<path d="M960 6830 c0 -13 7 -20 19 -20 28 0 35 17 12 29 -27 15 -31 14 -31
-9z"/>
<path d="M1538 6663 c12 -2 32 -2 45 0 12 2 2 4 -23 4 -25 0 -35 -2 -22 -4z"/>
<path d="M2580 6630 c0 -5 5 -10 10 -10 6 0 10 5 10 10 0 6 -4 10 -10 10 -5 0
-10 -4 -10 -10z"/>
<path d="M3631 2004 c0 -11 3 -14 6 -6 3 7 2 16 -1 19 -3 4 -6 -2 -5 -13z"/>
<path d="M3874 1935 c-18 -38 -5 -44 81 -36 l80 6 -60 19 c-33 10 -67 21 -75
26 -11 5 -19 1 -26 -15z"/>
<path d="M3736 1878 c-5 -20 9 -24 20 -7 3 6 24 9 45 7 22 -2 39 0 39 3 0 4
-22 9 -49 11 -41 2 -51 0 -55 -14z"/>
<path d="M3704 1866 c-4 -11 -16 -15 -33 -14 -16 2 -25 -2 -23 -9 1 -7 -3 -13
-9 -13 -6 0 -9 -10 -8 -22 2 -13 0 -28 -3 -33 -4 -6 1 -11 11 -11 13 0 16 6
13 25 -4 19 -2 23 12 18 9 -4 16 -1 16 5 0 7 10 22 22 35 12 13 19 26 15 29
-4 4 -9 -1 -13 -10z"/>
<path d="M3798 1853 c7 -3 16 -2 19 1 4 3 -2 6 -13 5 -11 0 -14 -3 -6 -6z"/>
<path d="M3710 1815 c-8 -9 -8 -15 -2 -15 12 0 26 19 19 26 -2 2 -10 -2 -17
-11z"/>
<path d="M3850 1789 c0 -13 39 -21 73 -14 17 4 29 4 25 0 -4 -4 9 -30 29 -57
19 -28 30 -47 24 -44 -15 10 -14 0 4 -34 9 -17 22 -30 30 -30 8 0 15 -5 15
-10 0 -6 -6 -10 -12 -8 -29 5 -56 -13 -51 -33 4 -16 12 -20 35 -17 17 2 30 0
29 -5 -3 -30 -15 -57 -25 -57 -15 0 -96 -52 -96 -61 0 -9 15 -6 55 9 58 23 80
40 77 61 -2 11 6 31 18 43 l21 23 -21 9 c-26 12 -25 20 5 36 19 10 22 16 14
27 -9 10 -15 11 -26 2 -18 -16 -29 -3 -13 16 8 10 9 15 1 15 -6 0 -11 7 -11
15 0 9 -7 18 -15 21 -8 4 -12 10 -9 15 3 5 -2 9 -10 9 -10 0 -16 9 -16 24 0
13 -6 27 -12 29 -10 4 -10 6 0 6 6 1 12 5 12 9 0 4 -34 8 -75 9 -41 0 -75 -3
-75 -8z m180 -219 c0 -5 -4 -10 -10 -10 -5 0 -10 5 -10 10 0 6 5 10 10 10 6 0
10 -4 10 -10z"/>
<path d="M4120 1700 c0 -5 5 -10 10 -10 6 0 10 5 10 10 0 6 -4 10 -10 10 -5 0
-10 -4 -10 -10z"/>
<path d="M985 1610 c-3 -5 -1 -10 4 -10 6 0 11 5 11 10 0 6 -2 10 -4 10 -3 0
-8 -4 -11 -10z"/>
<path d="M4080 1580 c0 -5 4 -10 9 -10 6 0 13 5 16 10 3 6 -1 10 -9 10 -9 0
-16 -4 -16 -10z"/>
<path d="M3956 1558 c5 -22 5 -22 -7 -3 -12 19 -12 19 -20 0 -14 -35 -10 -47
11 -40 13 4 20 2 20 -6 0 -9 3 -10 11 -2 13 13 8 65 -8 70 -7 3 -10 -4 -7 -19z"/>
<path d="M830 1490 c0 -5 5 -10 10 -10 6 0 10 5 10 10 0 6 -4 10 -10 10 -5 0
-10 -4 -10 -10z"/>
<path d="M782 1464 c-27 -19 -28 -34 -3 -34 11 0 21 9 24 22 8 29 5 31 -21 12z"/>
<path d="M1041 1453 c-1 -6 -8 -19 -17 -27 -11 -12 -12 -16 -2 -16 24 0 36 14
27 35 -4 11 -8 15 -8 8z"/>
<path d="M3885 1450 c3 -5 -1 -10 -9 -10 -9 0 -16 -4 -16 -10 0 -15 9 -12 37
10 25 20 25 20 4 20 -12 0 -19 -4 -16 -10z"/>
<path d="M4142 1428 c-5 -7 -13 -24 -17 -38 -4 -13 -14 -30 -22 -38 -8 -8 -11
-17 -8 -20 8 -8 55 51 49 60 -3 4 4 13 16 20 11 7 20 16 20 20 0 13 -27 9 -38
-4z"/>
<path d="M1208 1423 c6 -2 18 -2 25 0 6 3 1 5 -13 5 -14 0 -19 -2 -12 -5z"/>
<path d="M2858 1422 c-22 -4 -23 -30 -3 -68 8 -16 15 -41 15 -56 0 -16 5 -28
10 -28 6 0 10 8 10 17 0 9 9 36 20 59 20 40 42 56 95 67 11 3 -5 6 -35 7 -30
1 -64 3 -75 4 -11 1 -28 0 -37 -2z"/>
<path d="M5054 1402 c-29 -23 -74 -93 -74 -114 0 -9 -8 -21 -17 -27 -14 -7
-15 -13 -7 -21 15 -15 6 -89 -13 -111 -12 -14 -20 -15 -49 -6 -20 6 -45 21
-57 34 -12 12 -28 23 -35 23 -22 0 6 -39 33 -46 24 -6 35 -24 15 -24 -7 0 -7
-6 0 -19 5 -11 10 -40 10 -65 0 -24 5 -46 11 -48 6 -2 13 -21 14 -41 2 -20 0
-35 -5 -32 -4 3 -10 -6 -12 -18 -4 -23 12 -47 32 -47 19 0 10 -55 -15 -84 -14
-16 -25 -35 -25 -43 0 -7 -4 -12 -9 -11 -5 2 -10 -1 -11 -7 -1 -5 -7 -19 -13
-30 -16 -29 -18 -68 -4 -77 8 -5 6 -9 -6 -12 -9 -4 -24 -8 -33 -11 -9 -3 -14
-11 -10 -20 3 -8 1 -17 -4 -20 -10 -6 -12 -1 -14 45 -1 14 -5 51 -10 83 -14
93 -35 71 -55 -55 -11 -67 -10 -82 4 -111 9 -19 17 -58 19 -88 2 -30 7 -61 10
-70 5 -10 -2 -27 -17 -45 l-24 -28 18 -50 c9 -28 27 -61 38 -74 11 -13 26 -42
32 -65 18 -67 17 -67 170 -67 l139 0 0 110 c0 86 -3 110 -14 110 -7 0 -30 14
-51 30 -21 17 -44 30 -51 30 -23 0 -34 35 -40 127 -5 72 -3 104 16 176 12 49
24 105 26 125 8 66 15 90 30 96 8 3 14 12 14 21 0 18 12 19 28 3 17 -17 15
-45 -3 -52 -8 -3 -15 -11 -14 -18 0 -10 2 -10 6 0 7 18 23 15 23 -5 0 -12 5
-9 15 11 9 17 15 55 15 95 0 62 -3 70 -35 108 -30 35 -35 50 -45 126 -12 99
-4 129 50 184 28 30 31 38 28 87 -3 55 -3 55 -24 38z m-244 -846 c0 -3 -4 -8
-10 -11 -5 -3 -10 -1 -10 4 0 6 5 11 10 11 6 0 10 -2 10 -4z"/>
<path d="M3116 1391 c-6 -9 39 -21 83 -21 14 -1 43 -7 65 -15 24 -8 47 -10 60
-5 20 8 20 8 -4 13 -14 3 -54 11 -90 17 -36 6 -75 13 -87 16 -12 2 -24 0 -27
-5z"/>
<path d="M952 1355 c-31 -33 -25 -48 9 -22 14 10 36 57 27 57 -2 0 -18 -16
-36 -35z"/>
<path d="M4345 1370 c-3 -5 1 -10 10 -10 9 0 13 5 10 10 -3 6 -8 10 -10 10 -2
0 -7 -4 -10 -10z"/>
<path d="M4646 1353 c-4 -13 -4 -28 -1 -34 4 -6 2 -31 -5 -55 -16 -55 -9 -64
18 -27 18 26 19 33 8 83 -11 45 -14 51 -20 33z"/>
<path d="M3870 1345 c0 -7 14 -18 30 -24 27 -9 30 -8 30 12 0 18 -6 22 -30 23
-18 1 -30 -4 -30 -11z"/>
<path d="M4310 1339 c0 -5 5 -7 10 -4 6 3 10 8 10 11 0 2 -4 4 -10 4 -5 0 -10
-5 -10 -11z"/>
<path d="M4071 1293 c0 -12 -5 -25 -11 -28 -5 -3 -10 -11 -10 -18 0 -7 6 -5
16 5 9 9 14 26 11 39 -4 23 -4 23 -6 2z"/>
<path d="M1154 1291 c10 -16 45 -19 63 -5 16 12 13 13 -25 14 -24 0 -41 -4
-38 -9z"/>
<path d="M3800 1270 c0 -13 11 -13 30 0 12 8 11 10 -7 10 -13 0 -23 -4 -23
-10z"/>
<path d="M1170 1219 c0 -5 5 -7 10 -4 6 3 10 8 10 11 0 2 -4 4 -10 4 -5 0 -10
-5 -10 -11z"/>
<path d="M4230 1125 c0 -73 9 -81 35 -33 24 45 21 62 -15 71 -18 5 -20 0 -20
-38z"/>
<path d="M2610 1110 c-13 -8 -12 -10 3 -10 9 0 17 5 17 10 0 12 -1 12 -20 0z"/>
<path d="M4645 1081 c-3 -2 -5 -26 -5 -53 0 -27 -5 -58 -11 -70 -11 -20 -5
-21 48 -1 7 3 18 -8 24 -23 l12 -29 10 48 c5 26 6 67 3 90 -6 41 -8 43 -42 43
-19 0 -37 -2 -39 -5z"/>
<path d="M3881 1043 c-1 -40 1 -48 14 -48 6 0 10 -5 10 -10 0 -6 -8 -9 -17 -8
-27 4 -21 -10 9 -24 31 -15 53 -2 53 31 0 14 -10 26 -29 34 -17 7 -32 23 -34
35 -3 15 -5 12 -6 -10z"/>
<path d="M1090 1000 c0 -5 5 -10 11 -10 5 0 7 5 4 10 -3 6 -8 10 -11 10 -2 0
-4 -4 -4 -10z"/>
<path d="M1566 969 c-21 -21 -34 -39 -30 -39 16 1 76 58 73 68 -2 6 -21 -7
-43 -29z"/>
<path d="M1288 988 c-21 -6 -38 -14 -38 -19 0 -12 55 -39 79 -39 17 0 18 4 11
29 -4 16 -6 32 -2 35 7 8 -4 6 -50 -6z"/>
<path d="M3981 993 c-1 -6 3 -23 9 -38 8 -20 6 -32 -7 -51 -16 -25 -16 -25 13
-18 16 4 30 8 31 9 4 2 -21 69 -28 75 -3 3 -9 12 -12 20 -3 8 -6 10 -6 3z"/>
<path d="M4375 967 c-6 -7 -15 -19 -20 -27 -7 -12 -5 -12 11 1 10 9 28 21 39
27 l20 11 -20 0 c-11 0 -25 -5 -30 -12z"/>
<path d="M1490 943 c1 -14 30 -47 36 -41 6 7 -17 48 -28 48 -5 0 -8 -3 -8 -7z"/>
<path d="M1213 903 c9 -2 23 -2 30 0 6 3 -1 5 -18 5 -16 0 -22 -2 -12 -5z"/>
<path d="M3740 885 c-26 -27 -22 -40 8 -31 12 4 20 16 20 31 0 14 -1 25 -3 25
-1 0 -12 -11 -25 -25z"/>
<path d="M1685 860 c-10 -11 -26 -20 -37 -20 -10 0 -18 -6 -18 -14 0 -15 -35
-32 -58 -28 -8 2 -10 -5 -8 -20 3 -13 5 -28 5 -34 1 -6 19 -18 40 -26 38 -15
39 -15 50 8 6 13 8 37 5 53 -7 32 12 53 27 30 6 -10 9 -5 9 17 0 16 5 35 12
42 7 7 8 12 2 12 -6 0 -19 -9 -29 -20z"/>
<path d="M1414 855 c-10 -8 -26 -15 -35 -15 -13 0 -17 -16 -22 -75 -9 -106 -2
-132 37 -138 21 -4 35 0 44 11 15 20 16 36 1 26 -7 -4 -6 3 2 17 7 14 14 19
16 12 3 -8 12 -9 27 -4 19 8 22 5 24 -16 1 -13 -9 -39 -21 -56 -31 -42 -26
-70 10 -56 15 5 32 8 40 5 7 -3 13 1 13 10 0 10 6 14 15 11 10 -4 17 5 25 31
15 56 14 64 -9 51 -19 -13 -51 -6 -51 10 0 5 10 11 23 15 14 4 18 9 10 13 -13
9 -20 73 -10 90 5 7 4 21 -1 30 -5 10 -7 25 -5 33 3 8 -8 1 -25 -17 -21 -23
-33 -28 -40 -21 -8 8 -14 4 -21 -14 -5 -15 -15 -29 -20 -33 -6 -3 -11 -21 -12
-38 0 -18 -3 -26 -6 -19 -10 25 -22 11 -16 -19 5 -25 3 -31 -8 -27 -23 8 -41
55 -29 77 5 11 10 29 10 40 0 13 12 26 30 36 17 9 30 22 30 30 0 19 -2 19 -26
0z"/>
<path d="M4015 850 c-4 -6 -2 -17 4 -23 15 -15 25 -2 13 19 -7 12 -11 13 -17
4z"/>
<path d="M3805 810 c-3 -5 -13 -10 -21 -10 -15 0 -53 -37 -54 -51 0 -4 7 -9
15 -12 9 -4 19 4 27 21 7 15 23 28 36 30 23 3 29 16 13 27 -5 3 -12 1 -16 -5z"/>
<path d="M3850 800 c0 -5 5 -10 10 -10 6 0 10 5 10 10 0 6 -4 10 -10 10 -5 0
-10 -4 -10 -10z"/>
<path d="M1766 791 c-3 -5 1 -14 8 -20 12 -10 13 -8 9 8 -6 23 -9 25 -17 12z"/>
<path d="M2546 755 c-3 -8 -1 -15 4 -15 6 0 10 7 10 15 0 8 -2 15 -4 15 -2 0
-6 -7 -10 -15z"/>
<path d="M3914 761 c7 -12 -21 -61 -35 -61 -5 0 -9 9 -9 20 0 18 -3 19 -20 10
-29 -16 -24 -37 11 -44 32 -6 66 12 89 47 13 22 13 22 -19 32 -16 5 -21 4 -17
-4z"/>
<path d="M4068 763 c-10 -2 -18 -10 -18 -17 0 -7 -9 -25 -20 -39 -22 -27 -26
-42 -10 -32 6 4 9 -2 7 -14 -2 -11 -22 -34 -46 -51 -52 -38 -47 -50 7 -22 l40
21 6 -30 c3 -16 12 -40 21 -52 l15 -24 35 33 35 33 -30 30 c-32 32 -39 75 -21
139 5 17 7 31 3 31 -4 -1 -15 -3 -24 -6z m0 -158 c-1 -24 -5 -42 -9 -39 -12 7
-22 71 -14 84 13 20 23 0 23 -45z"/>
<path d="M4345 752 c-13 -9 -37 -52 -29 -52 9 0 30 24 37 43 7 19 6 20 -8 9z"/>
<path d="M3590 697 c0 -51 22 -117 39 -117 16 0 13 16 -4 30 -23 19 -18 33 11
26 17 -5 25 -3 23 6 -3 25 14 59 26 54 7 -2 15 4 18 15 3 11 0 19 -7 19 -16 0
-46 -32 -46 -49 0 -23 -25 -6 -42 30 l-18 34 0 -48z"/>
<path d="M1690 716 c0 -7 -6 -19 -14 -25 -7 -6 -16 -29 -20 -51 -3 -22 -11
-39 -17 -37 -6 1 -14 -4 -16 -10 -9 -25 27 -12 41 15 12 23 15 25 21 10 4 -10
13 -18 21 -18 8 0 14 -4 14 -9 0 -4 12 -6 27 -3 25 5 26 4 19 -29 l-6 -34 16
24 c16 22 16 27 0 77 -17 54 -53 104 -75 104 -6 0 -11 -6 -11 -14z"/>
<path d="M4273 723 c-18 -7 -16 -23 2 -23 8 0 15 7 15 15 0 8 -1 15 -2 14 -2
0 -9 -3 -15 -6z"/>
<path d="M4365 647 c-3 -12 1 -36 9 -52 11 -21 16 -24 16 -12 0 10 -5 28 -11
40 -9 16 -9 22 0 25 14 5 15 22 1 22 -5 0 -12 -10 -15 -23z"/>
<path d="M2360 650 c0 -5 4 -10 9 -10 6 0 13 5 16 10 3 6 -1 10 -9 10 -9 0
-16 -4 -16 -10z"/>
<path d="M3750 642 c0 -7 -11 -24 -25 -38 -40 -40 -33 -52 23 -44 26 5 50 6
54 4 3 -2 11 10 17 26 10 29 9 30 -19 30 -17 0 -33 7 -39 18 -6 10 -11 12 -11
4z"/>
<path d="M1379 598 c9 -25 31 -36 31 -16 0 7 -9 19 -20 25 -17 12 -18 11 -11
-9z"/>
<path d="M5015 610 c-3 -5 3 -10 14 -10 12 0 21 5 21 10 0 6 -6 10 -14 10 -8
0 -18 -4 -21 -10z"/>
<path d="M960 587 c0 -18 -48 -67 -75 -77 -17 -6 -23 -15 -20 -29 2 -13 -1
-18 -8 -15 -8 3 -13 -6 -15 -22 -2 -22 1 -25 18 -21 10 3 19 2 18 -2 -1 -3 4
-23 11 -44 7 -21 10 -44 8 -51 -4 -9 0 -12 11 -9 9 2 18 15 18 28 1 16 -2 22
-12 18 -11 -4 -14 6 -14 41 0 38 5 52 27 74 38 37 68 122 43 122 -5 0 -10 -6
-10 -13z"/>
<path d="M626 531 c-19 -7 -19 -8 2 -13 15 -4 22 -2 22 8 0 8 -1 14 -2 13 -2
0 -12 -4 -22 -8z"/>
<path d="M1717 499 c-9 -56 1 -92 23 -79 10 7 11 10 3 10 -19 0 -16 59 2 66 8
4 15 11 15 16 0 6 -6 6 -14 -1 -12 -10 -15 -8 -18 11 -3 15 -6 8 -11 -23z"/>
<path d="M555 510 c-3 -5 -2 -10 4 -10 5 0 16 -3 25 -6 11 -4 16 -1 16 10 0
18 -35 22 -45 6z"/>
<path d="M2100 500 c0 -5 -12 -10 -27 -11 l-28 0 24 -10 c18 -7 27 -6 33 3 9
15 10 28 3 28 -3 0 -5 -4 -5 -10z"/>
<path d="M5040 495 c0 -8 7 -15 15 -15 8 0 15 7 15 15 0 8 -7 15 -15 15 -8 0
-15 -7 -15 -15z"/>
<path d="M4590 476 c0 -9 5 -16 10 -16 6 0 10 4 10 9 0 6 -4 13 -10 16 -5 3
-10 -1 -10 -9z"/>
<path d="M2130 473 c-14 -3 -34 -13 -45 -23 -11 -10 -33 -22 -48 -25 -21 -6
-26 -12 -21 -24 4 -9 8 -32 8 -51 1 -22 10 -44 24 -58 26 -26 37 -28 28 -7 -3
8 -1 27 4 41 6 14 11 43 12 64 1 35 5 41 45 61 58 30 57 33 -7 22z"/>
<path d="M1350 431 c-7 -17 -9 -46 -6 -68 4 -21 7 -57 8 -80 1 -24 5 -43 10
-43 4 0 8 -11 8 -25 0 -14 6 -25 13 -25 18 1 58 37 56 52 -4 33 0 41 16 28 9
-7 19 -9 23 -5 4 4 1 10 -5 12 -15 5 -17 33 -3 33 6 0 10 12 10 27 l0 27 -23
-32 c-13 -17 -27 -29 -30 -25 -12 11 -8 73 5 73 6 0 4 7 -5 18 -10 10 -17 24
-17 30 0 10 -30 32 -43 32 -3 0 -10 -13 -17 -29z"/>
<path d="M3574 428 c-11 -21 -13 -51 -8 -125 3 -54 9 -107 14 -118 4 -11 11
-29 14 -39 6 -18 9 -17 36 9 19 18 28 36 27 54 -2 22 2 26 22 23 20 -2 22 0
12 12 -10 11 -9 21 4 46 9 18 14 34 11 38 -7 7 -9 5 -34 -37 l-21 -34 -12 26
c-9 19 -9 33 0 58 8 23 8 36 0 45 -6 8 -9 26 -7 41 3 24 0 28 -20 28 -16 0
-29 -9 -38 -27z"/>
<path d="M2180 440 c0 -5 7 -10 15 -10 8 0 15 5 15 10 0 6 -7 10 -15 10 -8 0
-15 -4 -15 -10z"/>
<path d="M4610 440 c0 -5 4 -10 9 -10 6 0 13 5 16 10 3 6 -1 10 -9 10 -9 0
-16 -4 -16 -10z"/>
<path d="M3956 425 c-3 -9 -5 -29 -5 -43 1 -20 3 -17 9 13 8 43 7 57 -4 30z"/>
<path d="M4387 405 c-33 -42 -21 -45 33 -9 45 30 51 44 18 44 -14 0 -34 -14
-51 -35z"/>
<path d="M1886 413 c-4 -8 -2 -21 3 -27 5 -6 11 -20 13 -31 3 -11 6 -2 9 22 5
43 -13 68 -25 36z"/>
<path d="M5020 420 c0 -5 5 -10 10 -10 6 0 10 5 10 10 0 6 -4 10 -10 10 -5 0
-10 -4 -10 -10z"/>
<path d="M0 381 c0 -22 6 -44 15 -51 17 -14 20 -56 6 -65 -5 -3 -12 3 -14 12
-3 10 -5 -2 -6 -26 -1 -33 2 -42 13 -38 7 3 19 0 25 -6 14 -14 19 -8 23 26 3
16 9 32 15 35 7 4 11 29 9 58 -3 55 -30 94 -66 94 -17 0 -20 -7 -20 -39z"/>
<path d="M2237 399 c4 -13 8 -18 11 -10 2 7 -1 18 -6 23 -8 8 -9 4 -5 -13z"/>
<path d="M4250 358 c-18 -20 -25 -39 -21 -62 1 -5 -9 -25 -23 -45 -18 -27 -27
-59 -35 -126 -15 -127 -16 -125 17 -125 23 0 30 6 40 33 15 40 16 133 2 142
-12 8 -13 40 -1 63 11 20 49 142 45 142 -2 0 -12 -10 -24 -22z"/>
<path d="M5045 360 c-9 -15 6 -60 21 -60 9 0 14 12 14 35 0 34 -20 49 -35 25z"/>
<path d="M4960 352 c0 -11 22 -32 32 -32 5 0 4 9 -2 20 -11 20 -30 28 -30 12z"/>
<path d="M2211 334 c0 -11 3 -14 6 -6 3 7 2 16 -1 19 -3 4 -6 -2 -5 -13z"/>
<path d="M2301 334 c0 -11 3 -14 6 -6 3 7 2 16 -1 19 -3 4 -6 -2 -5 -13z"/>
<path d="M4480 312 c0 -4 4 -13 9 -20 7 -11 9 -11 14 1 3 9 -1 18 -9 21 -8 3
-14 2 -14 -2z"/>
<path d="M3721 294 c0 -11 3 -14 6 -6 3 7 2 16 -1 19 -3 4 -6 -2 -5 -13z"/>
<path d="M1502 282 c4 -12 3 -24 -2 -27 -4 -2 -5 -16 -2 -30 3 -19 8 -23 15
-16 17 17 24 13 32 -16 8 -32 -24 -105 -42 -98 -9 3 -13 -10 -13 -45 0 -49 1
-50 30 -50 24 0 28 3 23 18 -3 9 -10 23 -16 29 -6 9 1 32 22 72 l31 60 -18 46
c-19 50 -70 98 -60 57z"/>
<path d="M2173 283 c9 -2 25 -2 35 0 9 3 1 5 -18 5 -19 0 -27 -2 -17 -5z"/>
<path d="M1915 265 c3 -11 9 -33 12 -50 4 -16 19 -41 33 -55 32 -30 48 -97 31
-129 -16 -29 -15 -31 29 -31 22 0 40 5 40 10 0 6 -7 10 -15 10 -11 0 -15 11
-14 43 0 41 1 41 15 20 15 -21 18 -21 39 -7 20 13 22 18 12 43 -9 24 -7 32 8
47 18 18 18 16 11 -74 l-7 -92 59 0 c63 0 87 14 76 44 -4 11 -1 16 11 16 10 0
13 4 9 12 -5 7 -7 25 -6 40 2 27 -23 51 -49 46 -6 -2 -14 3 -16 11 -4 9 0 11
16 6 12 -3 21 -2 21 4 0 5 12 23 26 40 14 17 22 31 17 31 -11 -1 -49 -30 -45
-35 7 -14 0 -26 -12 -22 -19 7 -36 -14 -46 -56 l-8 -32 -1 31 c-1 16 -6 35
-13 42 -17 17 -58 15 -65 -4 -5 -12 -7 -13 -14 -3 -4 8 -3 16 2 20 7 4 5 8 -4
12 -7 3 -20 1 -27 -3 -11 -7 -10 -11 3 -25 18 -17 22 -35 10 -35 -20 0 -76 44
-91 71 -9 17 -25 41 -35 53 -18 20 -18 20 -12 1z"/>
<path d="M4421 264 c0 -11 3 -14 6 -6 3 7 2 16 -1 19 -3 4 -6 -2 -5 -13z"/>
<path d="M1720 245 c5 -14 6 -42 1 -67 l-9 -43 -1 40 c-2 70 -18 72 -25 3 -11
-98 -13 -113 -21 -149 -4 -22 -3 -29 3 -20 7 9 12 10 16 2 4 -6 29 -11 57 -11
l49 0 0 45 c0 33 -4 45 -15 45 -11 0 -15 12 -15 44 0 24 -9 65 -20 90 -20 48
-37 65 -20 21z m50 -212 c0 -29 -2 -29 -19 5 -10 18 -9 22 4 22 10 0 15 -9 15
-27z"/>
<path d="M2003 242 c0 -12 5 -22 9 -22 11 0 10 12 -2 30 -7 12 -9 10 -7 -8z"/>
<path d="M3726 226 c-8 -43 1 -71 20 -56 10 9 14 4 20 -24 3 -20 3 -48 -2 -63
-4 -16 -8 -35 -9 -43 0 -8 -8 -14 -17 -14 -10 1 -14 -4 -11 -12 11 -30 30 -11
52 51 22 65 22 66 4 119 -10 30 -25 59 -34 65 -14 8 -18 4 -23 -23z"/>
<path d="M2160 230 c0 -5 4 -10 9 -10 5 0 18 -3 28 -7 16 -6 16 -5 4 10 -15
19 -41 23 -41 7z"/>
<path d="M2096 217 c3 -10 9 -15 12 -12 3 3 0 11 -7 18 -10 9 -11 8 -5 -6z"/>
<path d="M1870 211 c0 -5 -3 -17 -6 -26 -6 -15 -4 -15 15 -4 24 16 28 39 6 39
-8 0 -15 -4 -15 -9z"/>
<path d="M2142 206 c7 -8 15 -12 17 -11 5 6 -10 25 -20 25 -5 0 -4 -6 3 -14z"/>
<path d="M1800 190 c0 -21 17 -46 25 -38 4 4 0 17 -9 30 -10 14 -16 17 -16 8z"/>
<path d="M1387 157 c-3 -9 -15 -17 -25 -17 -16 0 -20 -10 -26 -54 -3 -30 -9
-61 -12 -70 -13 -34 14 -14 29 22 9 20 25 51 35 67 12 18 16 38 12 49 -6 18
-7 18 -13 3z"/>
<path d="M3917 108 c-12 -98 -7 -108 56 -108 29 0 47 4 41 8 -18 12 -34 49
-34 79 -1 15 -7 39 -15 53 l-14 25 -1 -37 c0 -52 -18 -48 -22 5 -3 38 -4 35
-11 -25z"/>
<path d="M4410 143 c0 -27 -50 -85 -67 -78 -13 4 -14 -1 -9 -26 6 -32 6 -32
-14 -14 -19 18 -20 17 -20 -3 0 -18 6 -22 31 -22 26 0 31 3 26 20 -8 30 8 33
23 5 16 -30 36 -32 50 -6 15 28 12 51 -6 51 -12 0 -14 8 -8 45 3 25 4 45 0 45
-3 0 -6 -7 -6 -17z"/>
<path d="M1256 114 c-3 -9 -6 -39 -5 -67 0 -29 3 -46 6 -39 2 6 11 12 19 12
19 0 18 16 -2 24 -12 5 -14 14 -9 46 7 41 2 53 -9 24z"/>
<path d="M1621 104 c0 -11 3 -14 6 -6 3 7 2 16 -1 19 -3 4 -6 -2 -5 -13z"/>
<path d="M3602 89 c-7 -11 -17 -17 -22 -14 -6 4 -10 -11 -10 -34 0 -23 5 -41
11 -41 19 0 40 29 46 64 6 39 -8 53 -25 25z"/>
<path d="M4355 90 c3 -5 8 -10 11 -10 2 0 4 5 4 10 0 6 -5 10 -11 10 -5 0 -7
-4 -4 -10z"/>
<path d="M1455 58 c12 -39 25 -44 25 -10 0 22 -5 32 -16 32 -11 0 -14 -6 -9
-22z"/>
<path d="M3492 30 c0 -19 2 -27 5 -17 2 9 2 25 0 35 -3 9 -5 1 -5 -18z"/>
<path d="M4477 36 c-4 -15 -6 -31 -2 -34 10 -10 16 6 13 35 l-3 28 -8 -29z"/>
<path d="M4680 19 c0 -5 5 -7 10 -4 6 3 10 8 10 11 0 2 -4 4 -10 4 -5 0 -10
-5 -10 -11z"/>
<path d="M525 10 c-3 -5 3 -10 15 -10 12 0 18 5 15 10 -3 6 -10 10 -15 10 -5
0 -12 -4 -15 -10z"/>
<path d="M1880 10 c0 -5 5 -10 10 -10 6 0 10 5 10 10 0 6 -4 10 -10 10 -5 0
-10 -4 -10 -10z"/>
<path d="M3690 10 c0 -5 5 -10 11 -10 5 0 7 5 4 10 -3 6 -8 10 -11 10 -2 0 -4
-4 -4 -10z"/>
<path d="M4045 10 c-3 -5 -1 -10 4 -10 6 0 11 5 11 10 0 6 -2 10 -4 10 -3 0
-8 -4 -11 -10z"/>
</g>
</svg>
